<?xml version="1.0" encoding="utf-8"?>
<!-- Generator: Adobe Illustrator 16.0.0, SVG Export Plug-In . SVG Version: 6.00 Build 0)  -->
<!DOCTYPE svg PUBLIC "-//W3C//DTD SVG 1.1//EN" "http://www.w3.org/Graphics/SVG/1.1/DTD/svg11.dtd">
<svg version="1.1" id="Layer_1" xmlns="http://www.w3.org/2000/svg" xmlns:xlink="http://www.w3.org/1999/xlink" x="0px" y="0px"
	 width="21.39px" height="21.38px" viewBox="0 0 21.39 21.38" enable-background="new 0 0 21.39 21.38" xml:space="preserve">
<path fill="#6D6E70" d="M21.366,5.537c-0.028-3.224-2.314-5.494-5.548-5.519c-3.42-0.024-6.841-0.024-10.261,0
	C2.326,0.043,0.048,2.316,0.021,5.547c-0.029,3.42-0.025,6.84-0.002,10.261c0.023,3.274,2.303,5.53,5.589,5.563
	c1.695,0.015,3.392,0.002,5.088,0.002c1.724-0.001,3.448,0.021,5.172-0.005c3.182-0.048,5.465-2.309,5.497-5.486
	C21.399,12.434,21.396,8.984,21.366,5.537 M13.553,10.682h-1.982v6.575h-2.55v-6.521c-0.47-0.027-0.851-0.05-1.297-0.075V8.059
	c0.321-0.037,0.664-0.077,1.083-0.126c0.06-1.233-0.099-2.569,1.109-3.394c1.151-0.785,2.457-0.452,3.786-0.511v2.108
	c-0.646,0.152-1.325,0.191-1.849,0.494c-0.227,0.131-0.133,0.813-0.196,1.33h2.124C13.701,8.911,13.629,9.772,13.553,10.682"/>
</svg>
