<?xml version="1.0" encoding="utf-8"?>
<!-- Generator: Adobe Illustrator 16.0.0, SVG Export Plug-In . SVG Version: 6.00 Build 0)  -->
<!DOCTYPE svg PUBLIC "-//W3C//DTD SVG 1.1//EN" "http://www.w3.org/Graphics/SVG/1.1/DTD/svg11.dtd">
<svg version="1.1" id="Layer_1" xmlns="http://www.w3.org/2000/svg" xmlns:xlink="http://www.w3.org/1999/xlink" x="0px" y="0px"
	 width="21.372px" height="21.372px" viewBox="0 0 21.372 21.372" enable-background="new 0 0 21.372 21.372" xml:space="preserve">
<g>
	<path fill="#6D6E70" d="M0.004,10.65c0-1.667-0.011-3.334,0.003-5.001c0.026-3.33,2.278-5.607,5.603-5.631
		c3.389-0.023,6.78-0.027,10.17,0.002c3.274,0.027,5.552,2.313,5.574,5.581c0.024,3.391,0.023,6.78,0.001,10.17
		c-0.022,3.278-2.287,5.554-5.566,5.581c-3.39,0.027-6.78,0.023-10.17,0.001c-3.335-0.021-5.587-2.29-5.612-5.618
		C-0.007,14.041,0.004,12.346,0.004,10.65 M17.281,10.687c0-1.25,0.014-2.5-0.003-3.75c-0.027-1.891-0.944-2.841-2.813-2.859
		c-2.527-0.025-5.056-0.025-7.583,0C5.024,4.095,4.076,5.064,4.063,6.936c-0.017,2.5-0.017,5,0,7.5
		c0.013,1.872,0.961,2.842,2.818,2.859c2.528,0.025,5.056,0.025,7.584,0c1.869-0.019,2.786-0.968,2.813-2.858
		C17.295,13.187,17.281,11.937,17.281,10.687"/>
	<path fill="#6D6E70" d="M5.341,9.382h1.882c-0.386,1.502-0.175,2.864,0.984,3.96c0.744,0.702,1.65,1.036,2.665,0.969
		c2.403-0.159,3.705-2.109,3.265-4.913h1.914c0,1.852,0.039,3.677-0.018,5.499c-0.025,0.809-0.6,1.189-1.604,1.196
		c-2.111,0.017-4.223,0.006-6.334,0.006C5.31,16.1,5.248,16.038,5.25,13.241c0-1.194,0.005-2.39,0.013-3.584
		C5.264,9.579,5.306,9.501,5.341,9.382"/>
	<path fill="#6D6E70" d="M10.702,13.016c-1.239,0.015-2.317-1.003-2.352-2.219c-0.038-1.331,0.998-2.437,2.297-2.45
		c1.302-0.014,2.372,1.072,2.36,2.395C12.996,11.959,11.939,13.001,10.702,13.016"/>
	<rect x="13.549" y="5.615" fill="#6D6E70" width="2.125" height="2.163"/>
</g>
</svg>
