<?xml version="1.0" encoding="utf-8"?>
<!-- Generator: Adobe Illustrator 16.0.0, SVG Export Plug-In . SVG Version: 6.00 Build 0)  -->
<!DOCTYPE svg PUBLIC "-//W3C//DTD SVG 1.1//EN" "http://www.w3.org/Graphics/SVG/1.1/DTD/svg11.dtd">
<svg version="1.1" id="Layer_1" xmlns="http://www.w3.org/2000/svg" xmlns:xlink="http://www.w3.org/1999/xlink" x="0px" y="0px"
	 width="21.383px" height="21.37px" viewBox="0 0 21.383 21.37" enable-background="new 0 0 21.383 21.37" xml:space="preserve">
<path fill="#6D6E70" d="M21.373,5.636c-0.021-3.279-2.285-5.581-5.552-5.612c-3.42-0.032-6.84-0.031-10.26,0
	c-3.242,0.03-5.51,2.3-5.536,5.531c-0.028,3.42-0.044,6.841,0.021,10.26c0.016,0.863,0.235,1.773,0.582,2.565
	c0.762,1.74,2.283,2.57,4.063,2.99h6.126h3.064h1.493c1.012,0,1.752-0.096,2.685-0.51c0.651-0.287,1.283-0.642,1.805-1.131
	c1.042-0.977,1.384-2.361,1.479-3.741c0.026-0.364,0.035-0.729,0.035-1.095C21.377,11.808,21.393,8.721,21.373,5.636 M5.61,4.026
	c0.813,0.011,1.542,0.76,1.524,1.567C7.117,6.412,6.375,7.133,5.565,7.117C4.739,7.102,4.027,6.37,4.043,5.553
	C4.058,4.736,4.798,4.015,5.61,4.026 M6.478,17.314c-0.609-0.032-1.224,0.026-1.83-0.027c-0.2-0.018-0.544-0.257-0.545-0.397
	c-0.033-2.769-0.025-5.537-0.025-8.342h3.066c0,1.257,0,2.472-0.001,3.687c0,1.472-0.017,2.943,0.009,4.414
	C7.161,17.162,6.982,17.342,6.478,17.314 M16.858,17.281c-0.657,0.059-1.322,0.023-2.118,0.023c0-1.375,0.015-2.622-0.007-3.867
	c-0.01-0.551-0.059-1.107-0.154-1.649c-0.129-0.732-0.616-1.088-1.353-1.099c-0.749-0.011-1.324,0.277-1.499,1.044
	c-0.122,0.535-0.174,1.095-0.185,1.645c-0.026,1.273-0.008,2.549-0.008,3.876h-2.48V8.545h2.281
	c0.019,0.335,0.035,0.636,0.062,1.096c0.916-1.089,2.061-1.224,3.276-1.117c1.443,0.125,2.419,0.987,2.505,2.424
	c0.116,1.939,0.113,3.887,0.121,5.831C17.3,16.953,17.025,17.266,16.858,17.281"/>
</svg>
